<?xml version="1.0" encoding="us-ascii" standalone="no"?><svg xmlns="http://www.w3.org/2000/svg" xmlns:xlink="http://www.w3.org/1999/xlink" contentStyleType="text/css" height="1120px" preserveAspectRatio="none" style="width:2067px;height:1120px;background:#FFFFFF;" version="1.1" viewBox="0 0 2067 1120" width="2067px" zoomAndPan="magnify"><defs/><g><!--class Carte--><g id="elem_Carte"><rect codeLine="1" fill="#F1F1F1" height="113.1875" id="Carte" rx="2.5" ry="2.5" style="stroke:#181818;stroke-width:0.5;" width="173" x="1260.5" y="425"/><ellipse cx="1322.75" cy="441" fill="#ADD1B2" rx="11" ry="11" style="stroke:#181818;stroke-width:1.0;"/><path d="M1325.0938,436.6719 C1324.1563,436.2344 1323.5625,436.0938 1322.6875,436.0938 C1320.0625,436.0938 1318.0625,438.1719 1318.0625,440.8906 L1318.0625,442.0156 C1318.0625,444.5938 1320.1719,446.4844 1323.0625,446.4844 C1324.2813,446.4844 1325.4375,446.1875 1326.1875,445.6406 C1326.7656,445.2344 1327.0938,444.7813 1327.0938,444.3906 C1327.0938,443.9375 1326.7031,443.5469 1326.2344,443.5469 C1326.0156,443.5469 1325.8125,443.625 1325.625,443.8125 C1325.1719,444.2969 1325.1719,444.2969 1324.9844,444.3906 C1324.5625,444.6563 1323.875,444.7813 1323.1094,444.7813 C1321.0625,444.7813 1319.7656,443.6875 1319.7656,441.9844 L1319.7656,440.8906 C1319.7656,439.1094 1321.0156,437.7969 1322.75,437.7969 C1323.3281,437.7969 1323.9375,437.9531 1324.4063,438.2031 C1324.8906,438.4844 1325.0625,438.7031 1325.1563,439.1094 C1325.2188,439.5156 1325.25,439.6406 1325.3906,439.7656 C1325.5313,439.9063 1325.7656,440.0156 1325.9844,440.0156 C1326.25,440.0156 1326.5156,439.875 1326.6875,439.6563 C1326.7969,439.5 1326.8281,439.3125 1326.8281,438.8906 L1326.8281,437.4688 C1326.8281,437.0313 1326.8125,436.9063 1326.7188,436.75 C1326.5625,436.4844 1326.2813,436.3438 1325.9844,436.3438 C1325.6875,436.3438 1325.4844,436.4375 1325.2656,436.75 L1325.0938,436.6719 Z " fill="#000000"/><text fill="#000000" font-family="sans-serif" font-size="14" lengthAdjust="spacing" textLength="40" x="1343.25" y="445.8467">Carte</text><line style="stroke:#181818;stroke-width:0.5;" x1="1261.5" x2="1432.5" y1="457" y2="457"/><polygon fill="none" points="1271.5,465.6484,1275.5,469.6484,1271.5,473.6484,1267.5,469.6484" style="stroke:#B38D22;stroke-width:1.0;"/><text fill="#000000" font-family="sans-serif" font-size="14" lengthAdjust="spacing" textLength="79" x="1280.5" y="473.9951">nom:string</text><text fill="#000000" font-family="sans-serif" font-size="14" lengthAdjust="spacing" textLength="104" x="1280.5" y="490.292">cout_piece:int</text><text fill="#000000" font-family="sans-serif" font-size="14" lengthAdjust="spacing" textLength="147" x="1280.5" y="506.5889">cout_prod:ressource</text><line style="stroke:#181818;stroke-width:0.5;" x1="1261.5" x2="1432.5" y1="513.8906" y2="513.8906"/><text fill="#000000" font-family="sans-serif" font-size="14" lengthAdjust="spacing" textLength="145" x="1266.5" y="530.8857">prix_final(joueur):int</text></g><!--class Batiment--><g id="elem_Batiment"><rect codeLine="7" fill="#F1F1F1" height="96.8906" id="Batiment" rx="2.5" ry="2.5" style="stroke:#181818;stroke-width:0.5;" width="123" x="935.5" y="680"/><ellipse cx="960.85" cy="696" fill="#ADD1B2" rx="11" ry="11" style="stroke:#181818;stroke-width:1.0;"/><path d="M963.1938,691.6719 C962.2563,691.2344 961.6625,691.0938 960.7875,691.0938 C958.1625,691.0938 956.1625,693.1719 956.1625,695.8906 L956.1625,697.0156 C956.1625,699.5938 958.2719,701.4844 961.1625,701.4844 C962.3813,701.4844 963.5375,701.1875 964.2875,700.6406 C964.8656,700.2344 965.1938,699.7813 965.1938,699.3906 C965.1938,698.9375 964.8031,698.5469 964.3344,698.5469 C964.1156,698.5469 963.9125,698.625 963.725,698.8125 C963.2719,699.2969 963.2719,699.2969 963.0844,699.3906 C962.6625,699.6563 961.975,699.7813 961.2094,699.7813 C959.1625,699.7813 957.8656,698.6875 957.8656,696.9844 L957.8656,695.8906 C957.8656,694.1094 959.1156,692.7969 960.85,692.7969 C961.4281,692.7969 962.0375,692.9531 962.5063,693.2031 C962.9906,693.4844 963.1625,693.7031 963.2563,694.1094 C963.3188,694.5156 963.35,694.6406 963.4906,694.7656 C963.6313,694.9063 963.8656,695.0156 964.0844,695.0156 C964.35,695.0156 964.6156,694.875 964.7875,694.6563 C964.8969,694.5 964.9281,694.3125 964.9281,693.8906 L964.9281,692.4688 C964.9281,692.0313 964.9125,691.9063 964.8188,691.75 C964.6625,691.4844 964.3813,691.3438 964.0844,691.3438 C963.7875,691.3438 963.5844,691.4375 963.3656,691.75 L963.1938,691.6719 Z " fill="#000000"/><text fill="#000000" font-family="sans-serif" font-size="14" lengthAdjust="spacing" textLength="68" x="977.15" y="700.8467">Batiment</text><line style="stroke:#181818;stroke-width:0.5;" x1="936.5" x2="1057.5" y1="712" y2="712"/><text fill="#000000" font-family="sans-serif" font-size="14" lengthAdjust="spacing" textLength="85" x="941.5" y="728.9951">Age:{1,2,3}</text><text fill="#000000" font-family="sans-serif" font-size="14" lengthAdjust="spacing" textLength="76" x="941.5" y="745.292">enjeu:bool</text><text fill="#000000" font-family="sans-serif" font-size="14" lengthAdjust="spacing" textLength="111" x="941.5" y="761.5889">accessible:bool</text><line style="stroke:#181818;stroke-width:0.5;" x1="936.5" x2="1057.5" y1="768.8906" y2="768.8906"/></g><!--class Merveille--><g id="elem_Merveille"><rect codeLine="12" fill="#F1F1F1" height="129.4844" id="Merveille" rx="2.5" ry="2.5" style="stroke:#181818;stroke-width:0.5;" width="168" x="1265" y="664"/><ellipse cx="1312.25" cy="680" fill="#ADD1B2" rx="11" ry="11" style="stroke:#181818;stroke-width:1.0;"/><path d="M1314.5938,675.6719 C1313.6563,675.2344 1313.0625,675.0938 1312.1875,675.0938 C1309.5625,675.0938 1307.5625,677.1719 1307.5625,679.8906 L1307.5625,681.0156 C1307.5625,683.5938 1309.6719,685.4844 1312.5625,685.4844 C1313.7813,685.4844 1314.9375,685.1875 1315.6875,684.6406 C1316.2656,684.2344 1316.5938,683.7813 1316.5938,683.3906 C1316.5938,682.9375 1316.2031,682.5469 1315.7344,682.5469 C1315.5156,682.5469 1315.3125,682.625 1315.125,682.8125 C1314.6719,683.2969 1314.6719,683.2969 1314.4844,683.3906 C1314.0625,683.6563 1313.375,683.7813 1312.6094,683.7813 C1310.5625,683.7813 1309.2656,682.6875 1309.2656,680.9844 L1309.2656,679.8906 C1309.2656,678.1094 1310.5156,676.7969 1312.25,676.7969 C1312.8281,676.7969 1313.4375,676.9531 1313.9063,677.2031 C1314.3906,677.4844 1314.5625,677.7031 1314.6563,678.1094 C1314.7188,678.5156 1314.75,678.6406 1314.8906,678.7656 C1315.0313,678.9063 1315.2656,679.0156 1315.4844,679.0156 C1315.75,679.0156 1316.0156,678.875 1316.1875,678.6563 C1316.2969,678.5 1316.3281,678.3125 1316.3281,677.8906 L1316.3281,676.4688 C1316.3281,676.0313 1316.3125,675.9063 1316.2188,675.75 C1316.0625,675.4844 1315.7813,675.3438 1315.4844,675.3438 C1315.1875,675.3438 1314.9844,675.4375 1314.7656,675.75 L1314.5938,675.6719 Z " fill="#000000"/><text fill="#000000" font-family="sans-serif" font-size="14" lengthAdjust="spacing" textLength="65" x="1332.75" y="684.8467">Merveille</text><line style="stroke:#181818;stroke-width:0.5;" x1="1266" x2="1432" y1="696" y2="696"/><text fill="#000000" font-family="sans-serif" font-size="14" lengthAdjust="spacing" textLength="156" x="1271" y="712.9951">Production:Ressource</text><text fill="#000000" font-family="sans-serif" font-size="14" lengthAdjust="spacing" textLength="70" x="1271" y="729.292">Points:int</text><text fill="#000000" font-family="sans-serif" font-size="14" lengthAdjust="spacing" textLength="143" x="1271" y="745.5889">Argent_Apport&#233;:int</text><text fill="#000000" font-family="sans-serif" font-size="14" lengthAdjust="spacing" textLength="133" x="1271" y="761.8857">Affecte:Ressource</text><text fill="#000000" font-family="sans-serif" font-size="14" lengthAdjust="spacing" textLength="113" x="1271" y="778.1826">tirage_jeton:int</text><line style="stroke:#181818;stroke-width:0.5;" x1="1266" x2="1432" y1="785.4844" y2="785.4844"/></g><!--class Mati?re_Premi?re--><g id="elem_Mati&#232;re_Premi&#232;re"><rect codeLine="24" fill="#F1F1F1" height="64.2969" id="Mati&#232;re_Premi&#232;re" rx="2.5" ry="2.5" style="stroke:#181818;stroke-width:0.5;" width="160" x="7" y="960"/><ellipse cx="22" cy="976" fill="#ADD1B2" rx="11" ry="11" style="stroke:#181818;stroke-width:1.0;"/><path d="M24.3438,971.6719 C23.4063,971.2344 22.8125,971.0938 21.9375,971.0938 C19.3125,971.0938 17.3125,973.1719 17.3125,975.8906 L17.3125,977.0156 C17.3125,979.5938 19.4219,981.4844 22.3125,981.4844 C23.5313,981.4844 24.6875,981.1875 25.4375,980.6406 C26.0156,980.2344 26.3438,979.7813 26.3438,979.3906 C26.3438,978.9375 25.9531,978.5469 25.4844,978.5469 C25.2656,978.5469 25.0625,978.625 24.875,978.8125 C24.4219,979.2969 24.4219,979.2969 24.2344,979.3906 C23.8125,979.6563 23.125,979.7813 22.3594,979.7813 C20.3125,979.7813 19.0156,978.6875 19.0156,976.9844 L19.0156,975.8906 C19.0156,974.1094 20.2656,972.7969 22,972.7969 C22.5781,972.7969 23.1875,972.9531 23.6563,973.2031 C24.1406,973.4844 24.3125,973.7031 24.4063,974.1094 C24.4688,974.5156 24.5,974.6406 24.6406,974.7656 C24.7813,974.9063 25.0156,975.0156 25.2344,975.0156 C25.5,975.0156 25.7656,974.875 25.9375,974.6563 C26.0469,974.5 26.0781,974.3125 26.0781,973.8906 L26.0781,972.4688 C26.0781,972.0313 26.0625,971.9063 25.9688,971.75 C25.8125,971.4844 25.5313,971.3438 25.2344,971.3438 C24.9375,971.3438 24.7344,971.4375 24.5156,971.75 L24.3438,971.6719 Z " fill="#000000"/><text fill="#000000" font-family="sans-serif" font-size="14" lengthAdjust="spacing" textLength="128" x="36" y="980.8467">Mati&#232;re_Premi&#232;re</text><line style="stroke:#181818;stroke-width:0.5;" x1="8" x2="166" y1="992" y2="992"/><text fill="#000000" font-family="sans-serif" font-size="14" lengthAdjust="spacing" textLength="114" x="13" y="1008.9951">Type:Ressource</text><line style="stroke:#181818;stroke-width:0.5;" x1="8" x2="166" y1="1016.2969" y2="1016.2969"/></g><!--class Mati?re_Manufacture--><g id="elem_Mati&#232;re_Manufacture"><rect codeLine="27" fill="#F1F1F1" height="64.2969" id="Mati&#232;re_Manufacture" rx="2.5" ry="2.5" style="stroke:#181818;stroke-width:0.5;" width="183" x="202.5" y="960"/><ellipse cx="217.5" cy="976" fill="#ADD1B2" rx="11" ry="11" style="stroke:#181818;stroke-width:1.0;"/><path d="M219.8438,971.6719 C218.9063,971.2344 218.3125,971.0938 217.4375,971.0938 C214.8125,971.0938 212.8125,973.1719 212.8125,975.8906 L212.8125,977.0156 C212.8125,979.5938 214.9219,981.4844 217.8125,981.4844 C219.0313,981.4844 220.1875,981.1875 220.9375,980.6406 C221.5156,980.2344 221.8438,979.7813 221.8438,979.3906 C221.8438,978.9375 221.4531,978.5469 220.9844,978.5469 C220.7656,978.5469 220.5625,978.625 220.375,978.8125 C219.9219,979.2969 219.9219,979.2969 219.7344,979.3906 C219.3125,979.6563 218.625,979.7813 217.8594,979.7813 C215.8125,979.7813 214.5156,978.6875 214.5156,976.9844 L214.5156,975.8906 C214.5156,974.1094 215.7656,972.7969 217.5,972.7969 C218.0781,972.7969 218.6875,972.9531 219.1563,973.2031 C219.6406,973.4844 219.8125,973.7031 219.9063,974.1094 C219.9688,974.5156 220,974.6406 220.1406,974.7656 C220.2813,974.9063 220.5156,975.0156 220.7344,975.0156 C221,975.0156 221.2656,974.875 221.4375,974.6563 C221.5469,974.5 221.5781,974.3125 221.5781,973.8906 L221.5781,972.4688 C221.5781,972.0313 221.5625,971.9063 221.4688,971.75 C221.3125,971.4844 221.0313,971.3438 220.7344,971.3438 C220.4375,971.3438 220.2344,971.4375 220.0156,971.75 L219.8438,971.6719 Z " fill="#000000"/><text fill="#000000" font-family="sans-serif" font-size="14" lengthAdjust="spacing" textLength="151" x="231.5" y="980.8467">Mati&#232;re_Manufacture</text><line style="stroke:#181818;stroke-width:0.5;" x1="203.5" x2="384.5" y1="992" y2="992"/><text fill="#000000" font-family="sans-serif" font-size="14" lengthAdjust="spacing" textLength="114" x="208.5" y="1008.9951">Type:Ressource</text><line style="stroke:#181818;stroke-width:0.5;" x1="203.5" x2="384.5" y1="1016.2969" y2="1016.2969"/></g><!--class Civil--><g id="elem_Civil"><rect codeLine="30" fill="#F1F1F1" height="64.2969" id="Civil" rx="2.5" ry="2.5" style="stroke:#181818;stroke-width:0.5;" width="82" x="421" y="960"/><ellipse cx="445" cy="976" fill="#ADD1B2" rx="11" ry="11" style="stroke:#181818;stroke-width:1.0;"/><path d="M447.3438,971.6719 C446.4063,971.2344 445.8125,971.0938 444.9375,971.0938 C442.3125,971.0938 440.3125,973.1719 440.3125,975.8906 L440.3125,977.0156 C440.3125,979.5938 442.4219,981.4844 445.3125,981.4844 C446.5313,981.4844 447.6875,981.1875 448.4375,980.6406 C449.0156,980.2344 449.3438,979.7813 449.3438,979.3906 C449.3438,978.9375 448.9531,978.5469 448.4844,978.5469 C448.2656,978.5469 448.0625,978.625 447.875,978.8125 C447.4219,979.2969 447.4219,979.2969 447.2344,979.3906 C446.8125,979.6563 446.125,979.7813 445.3594,979.7813 C443.3125,979.7813 442.0156,978.6875 442.0156,976.9844 L442.0156,975.8906 C442.0156,974.1094 443.2656,972.7969 445,972.7969 C445.5781,972.7969 446.1875,972.9531 446.6563,973.2031 C447.1406,973.4844 447.3125,973.7031 447.4063,974.1094 C447.4688,974.5156 447.5,974.6406 447.6406,974.7656 C447.7813,974.9063 448.0156,975.0156 448.2344,975.0156 C448.5,975.0156 448.7656,974.875 448.9375,974.6563 C449.0469,974.5 449.0781,974.3125 449.0781,973.8906 L449.0781,972.4688 C449.0781,972.0313 449.0625,971.9063 448.9688,971.75 C448.8125,971.4844 448.5313,971.3438 448.2344,971.3438 C447.9375,971.3438 447.7344,971.4375 447.5156,971.75 L447.3438,971.6719 Z " fill="#000000"/><text fill="#000000" font-family="sans-serif" font-size="14" lengthAdjust="spacing" textLength="30" x="461" y="980.8467">Civil</text><line style="stroke:#181818;stroke-width:0.5;" x1="422" x2="502" y1="992" y2="992"/><text fill="#000000" font-family="sans-serif" font-size="14" lengthAdjust="spacing" textLength="70" x="427" y="1008.9951">Points:int</text><line style="stroke:#181818;stroke-width:0.5;" x1="422" x2="502" y1="1016.2969" y2="1016.2969"/></g><!--class Scientifique--><g id="elem_Scientifique"><rect codeLine="33" fill="#F1F1F1" height="80.5938" id="Scientifique" rx="2.5" ry="2.5" style="stroke:#181818;stroke-width:0.5;" width="282" x="538" y="951.5"/><ellipse cx="631.75" cy="967.5" fill="#ADD1B2" rx="11" ry="11" style="stroke:#181818;stroke-width:1.0;"/><path d="M634.0938,963.1719 C633.1563,962.7344 632.5625,962.5938 631.6875,962.5938 C629.0625,962.5938 627.0625,964.6719 627.0625,967.3906 L627.0625,968.5156 C627.0625,971.0938 629.1719,972.9844 632.0625,972.9844 C633.2813,972.9844 634.4375,972.6875 635.1875,972.1406 C635.7656,971.7344 636.0938,971.2813 636.0938,970.8906 C636.0938,970.4375 635.7031,970.0469 635.2344,970.0469 C635.0156,970.0469 634.8125,970.125 634.625,970.3125 C634.1719,970.7969 634.1719,970.7969 633.9844,970.8906 C633.5625,971.1563 632.875,971.2813 632.1094,971.2813 C630.0625,971.2813 628.7656,970.1875 628.7656,968.4844 L628.7656,967.3906 C628.7656,965.6094 630.0156,964.2969 631.75,964.2969 C632.3281,964.2969 632.9375,964.4531 633.4063,964.7031 C633.8906,964.9844 634.0625,965.2031 634.1563,965.6094 C634.2188,966.0156 634.25,966.1406 634.3906,966.2656 C634.5313,966.4063 634.7656,966.5156 634.9844,966.5156 C635.25,966.5156 635.5156,966.375 635.6875,966.1563 C635.7969,966 635.8281,965.8125 635.8281,965.3906 L635.8281,963.9688 C635.8281,963.5313 635.8125,963.4063 635.7188,963.25 C635.5625,962.9844 635.2813,962.8438 634.9844,962.8438 C634.6875,962.8438 634.4844,962.9375 634.2656,963.25 L634.0938,963.1719 Z " fill="#000000"/><text fill="#000000" font-family="sans-serif" font-size="14" lengthAdjust="spacing" textLength="86" x="652.25" y="972.3467">Scientifique</text><line style="stroke:#181818;stroke-width:0.5;" x1="539" x2="819" y1="983.5" y2="983.5"/><text fill="#000000" font-family="sans-serif" font-size="14" lengthAdjust="spacing" textLength="70" x="544" y="1000.4951">Points:int</text><text fill="#000000" font-family="sans-serif" font-size="14" lengthAdjust="spacing" textLength="270" x="544" y="1016.792">Symbole:{roue,plume,bol,telescope}</text><line style="stroke:#181818;stroke-width:0.5;" x1="539" x2="819" y1="1024.0938" y2="1024.0938"/></g><!--class Commerce--><g id="elem_Commerce"><rect codeLine="37" fill="#F1F1F1" height="113.1875" id="Commerce" rx="2.5" ry="2.5" style="stroke:#181818;stroke-width:0.5;" width="169" x="855.5" y="935.5"/><ellipse cx="896.6" cy="951.5" fill="#ADD1B2" rx="11" ry="11" style="stroke:#181818;stroke-width:1.0;"/><path d="M898.9438,947.1719 C898.0063,946.7344 897.4125,946.5938 896.5375,946.5938 C893.9125,946.5938 891.9125,948.6719 891.9125,951.3906 L891.9125,952.5156 C891.9125,955.0938 894.0219,956.9844 896.9125,956.9844 C898.1313,956.9844 899.2875,956.6875 900.0375,956.1406 C900.6156,955.7344 900.9438,955.2813 900.9438,954.8906 C900.9438,954.4375 900.5531,954.0469 900.0844,954.0469 C899.8656,954.0469 899.6625,954.125 899.475,954.3125 C899.0219,954.7969 899.0219,954.7969 898.8344,954.8906 C898.4125,955.1563 897.725,955.2813 896.9594,955.2813 C894.9125,955.2813 893.6156,954.1875 893.6156,952.4844 L893.6156,951.3906 C893.6156,949.6094 894.8656,948.2969 896.6,948.2969 C897.1781,948.2969 897.7875,948.4531 898.2563,948.7031 C898.7406,948.9844 898.9125,949.2031 899.0063,949.6094 C899.0688,950.0156 899.1,950.1406 899.2406,950.2656 C899.3813,950.4063 899.6156,950.5156 899.8344,950.5156 C900.1,950.5156 900.3656,950.375 900.5375,950.1563 C900.6469,950 900.6781,949.8125 900.6781,949.3906 L900.6781,947.9688 C900.6781,947.5313 900.6625,947.4063 900.5688,947.25 C900.4125,946.9844 900.1313,946.8438 899.8344,946.8438 C899.5375,946.8438 899.3344,946.9375 899.1156,947.25 L898.9438,947.1719 Z " fill="#000000"/><text fill="#000000" font-family="sans-serif" font-size="14" lengthAdjust="spacing" textLength="79" x="916.4" y="956.3467">Commerce</text><line style="stroke:#181818;stroke-width:0.5;" x1="856.5" x2="1023.5" y1="967.5" y2="967.5"/><text fill="#000000" font-family="sans-serif" font-size="14" lengthAdjust="spacing" textLength="157" x="861.5" y="984.4951">production:Ressource</text><text fill="#000000" font-family="sans-serif" font-size="14" lengthAdjust="spacing" textLength="71" x="861.5" y="1000.792">points:int</text><text fill="#000000" font-family="sans-serif" font-size="14" lengthAdjust="spacing" textLength="139" x="861.5" y="1017.0889">argent_apport&#233;:int</text><text fill="#000000" font-family="sans-serif" font-size="14" lengthAdjust="spacing" textLength="131" x="861.5" y="1033.3857">affecte:Ressource</text><line style="stroke:#181818;stroke-width:0.5;" x1="856.5" x2="1023.5" y1="1040.6875" y2="1040.6875"/></g><!--class Guilde--><g id="elem_Guilde"><rect codeLine="43" fill="#F1F1F1" height="80.5938" id="Guilde" rx="2.5" ry="2.5" style="stroke:#181818;stroke-width:0.5;" width="89" x="1059.5" y="951.5"/><ellipse cx="1079.9" cy="967.5" fill="#ADD1B2" rx="11" ry="11" style="stroke:#181818;stroke-width:1.0;"/><path d="M1082.2438,963.1719 C1081.3063,962.7344 1080.7125,962.5938 1079.8375,962.5938 C1077.2125,962.5938 1075.2125,964.6719 1075.2125,967.3906 L1075.2125,968.5156 C1075.2125,971.0938 1077.3219,972.9844 1080.2125,972.9844 C1081.4313,972.9844 1082.5875,972.6875 1083.3375,972.1406 C1083.9156,971.7344 1084.2438,971.2813 1084.2438,970.8906 C1084.2438,970.4375 1083.8531,970.0469 1083.3844,970.0469 C1083.1656,970.0469 1082.9625,970.125 1082.775,970.3125 C1082.3219,970.7969 1082.3219,970.7969 1082.1344,970.8906 C1081.7125,971.1563 1081.025,971.2813 1080.2594,971.2813 C1078.2125,971.2813 1076.9156,970.1875 1076.9156,968.4844 L1076.9156,967.3906 C1076.9156,965.6094 1078.1656,964.2969 1079.9,964.2969 C1080.4781,964.2969 1081.0875,964.4531 1081.5563,964.7031 C1082.0406,964.9844 1082.2125,965.2031 1082.3063,965.6094 C1082.3688,966.0156 1082.4,966.1406 1082.5406,966.2656 C1082.6813,966.4063 1082.9156,966.5156 1083.1344,966.5156 C1083.4,966.5156 1083.6656,966.375 1083.8375,966.1563 C1083.9469,966 1083.9781,965.8125 1083.9781,965.3906 L1083.9781,963.9688 C1083.9781,963.5313 1083.9625,963.4063 1083.8688,963.25 C1083.7125,962.9844 1083.4313,962.8438 1083.1344,962.8438 C1082.8375,962.8438 1082.6344,962.9375 1082.4156,963.25 L1082.2438,963.1719 Z " fill="#000000"/><text fill="#000000" font-family="sans-serif" font-size="14" lengthAdjust="spacing" textLength="45" x="1095.1" y="972.3467">Guilde</text><line style="stroke:#181818;stroke-width:0.5;" x1="1060.5" x2="1147.5" y1="983.5" y2="983.5"/><text fill="#000000" font-family="sans-serif" font-size="14" lengthAdjust="spacing" textLength="77" x="1065.5" y="1000.4951">piece:bool</text><text fill="#000000" font-family="sans-serif" font-size="14" lengthAdjust="spacing" textLength="71" x="1065.5" y="1016.792">points:int</text><line style="stroke:#181818;stroke-width:1.0;" x1="1060.5" x2="1147.5" y1="1024.0938" y2="1024.0938"/></g><!--class Militaire--><g id="elem_Militaire"><rect codeLine="48" fill="#F1F1F1" height="64.2969" id="Militaire" rx="2.5" ry="2.5" style="stroke:#181818;stroke-width:0.5;" width="95" x="1183.5" y="960"/><ellipse cx="1200.75" cy="976" fill="#ADD1B2" rx="11" ry="11" style="stroke:#181818;stroke-width:1.0;"/><path d="M1203.0938,971.6719 C1202.1563,971.2344 1201.5625,971.0938 1200.6875,971.0938 C1198.0625,971.0938 1196.0625,973.1719 1196.0625,975.8906 L1196.0625,977.0156 C1196.0625,979.5938 1198.1719,981.4844 1201.0625,981.4844 C1202.2813,981.4844 1203.4375,981.1875 1204.1875,980.6406 C1204.7656,980.2344 1205.0938,979.7813 1205.0938,979.3906 C1205.0938,978.9375 1204.7031,978.5469 1204.2344,978.5469 C1204.0156,978.5469 1203.8125,978.625 1203.625,978.8125 C1203.1719,979.2969 1203.1719,979.2969 1202.9844,979.3906 C1202.5625,979.6563 1201.875,979.7813 1201.1094,979.7813 C1199.0625,979.7813 1197.7656,978.6875 1197.7656,976.9844 L1197.7656,975.8906 C1197.7656,974.1094 1199.0156,972.7969 1200.75,972.7969 C1201.3281,972.7969 1201.9375,972.9531 1202.4063,973.2031 C1202.8906,973.4844 1203.0625,973.7031 1203.1563,974.1094 C1203.2188,974.5156 1203.25,974.6406 1203.3906,974.7656 C1203.5313,974.9063 1203.7656,975.0156 1203.9844,975.0156 C1204.25,975.0156 1204.5156,974.875 1204.6875,974.6563 C1204.7969,974.5 1204.8281,974.3125 1204.8281,973.8906 L1204.8281,972.4688 C1204.8281,972.0313 1204.8125,971.9063 1204.7188,971.75 C1204.5625,971.4844 1204.2813,971.3438 1203.9844,971.3438 C1203.6875,971.3438 1203.4844,971.4375 1203.2656,971.75 L1203.0938,971.6719 Z " fill="#000000"/><text fill="#000000" font-family="sans-serif" font-size="14" lengthAdjust="spacing" textLength="58" x="1215.25" y="980.8467">Militaire</text><line style="stroke:#181818;stroke-width:0.5;" x1="1184.5" x2="1277.5" y1="992" y2="992"/><text fill="#000000" font-family="sans-serif" font-size="14" lengthAdjust="spacing" textLength="83" x="1189.5" y="1008.9951">bouclier:int</text><line style="stroke:#181818;stroke-width:0.5;" x1="1184.5" x2="1277.5" y1="1016.2969" y2="1016.2969"/></g><!--class Joueur--><g id="elem_Joueur"><rect codeLine="60" fill="#F1F1F1" height="292.4531" id="Joueur" rx="2.5" ry="2.5" style="stroke:#181818;stroke-width:0.5;" width="262" x="1409" y="7"/><ellipse cx="1513.75" cy="23" fill="#ADD1B2" rx="11" ry="11" style="stroke:#181818;stroke-width:1.0;"/><path d="M1516.0938,18.6719 C1515.1563,18.2344 1514.5625,18.0938 1513.6875,18.0938 C1511.0625,18.0938 1509.0625,20.1719 1509.0625,22.8906 L1509.0625,24.0156 C1509.0625,26.5938 1511.1719,28.4844 1514.0625,28.4844 C1515.2813,28.4844 1516.4375,28.1875 1517.1875,27.6406 C1517.7656,27.2344 1518.0938,26.7813 1518.0938,26.3906 C1518.0938,25.9375 1517.7031,25.5469 1517.2344,25.5469 C1517.0156,25.5469 1516.8125,25.625 1516.625,25.8125 C1516.1719,26.2969 1516.1719,26.2969 1515.9844,26.3906 C1515.5625,26.6563 1514.875,26.7813 1514.1094,26.7813 C1512.0625,26.7813 1510.7656,25.6875 1510.7656,23.9844 L1510.7656,22.8906 C1510.7656,21.1094 1512.0156,19.7969 1513.75,19.7969 C1514.3281,19.7969 1514.9375,19.9531 1515.4063,20.2031 C1515.8906,20.4844 1516.0625,20.7031 1516.1563,21.1094 C1516.2188,21.5156 1516.25,21.6406 1516.3906,21.7656 C1516.5313,21.9063 1516.7656,22.0156 1516.9844,22.0156 C1517.25,22.0156 1517.5156,21.875 1517.6875,21.6563 C1517.7969,21.5 1517.8281,21.3125 1517.8281,20.8906 L1517.8281,19.4688 C1517.8281,19.0313 1517.8125,18.9063 1517.7188,18.75 C1517.5625,18.4844 1517.2813,18.3438 1516.9844,18.3438 C1516.6875,18.3438 1516.4844,18.4375 1516.2656,18.75 L1516.0938,18.6719 Z " fill="#000000"/><text fill="#000000" font-family="sans-serif" font-size="14" lengthAdjust="spacing" textLength="44" x="1534.25" y="27.8467">Joueur</text><line style="stroke:#181818;stroke-width:0.5;" x1="1410" x2="1670" y1="39" y2="39"/><text fill="#000000" font-family="sans-serif" font-size="14" lengthAdjust="spacing" textLength="84" x="1429" y="55.9951">type:{h,IA}</text><polygon fill="none" points="1420,63.9453,1424,67.9453,1420,71.9453,1416,67.9453" style="stroke:#B38D22;stroke-width:1.0;"/><text fill="#000000" font-family="sans-serif" font-size="14" lengthAdjust="spacing" textLength="60" x="1429" y="72.292">id:string</text><text fill="#000000" font-family="sans-serif" font-size="14" lengthAdjust="spacing" textLength="71" x="1429" y="88.5889">points:int</text><text fill="#000000" font-family="sans-serif" font-size="14" lengthAdjust="spacing" textLength="63" x="1429" y="104.8857">solde:int</text><text fill="#000000" font-family="sans-serif" font-size="14" lengthAdjust="spacing" textLength="154" x="1429" y="121.1826">ressources:Ressource</text><text fill="#000000" font-family="sans-serif" font-size="14" lengthAdjust="spacing" textLength="168" x="1429" y="137.4795">possede_chainage:bool</text><line style="stroke:#181818;stroke-width:0.5;" x1="1410" x2="1670" y1="144.7813" y2="144.7813"/><text fill="#000000" font-family="sans-serif" font-size="14" lengthAdjust="spacing" textLength="129" x="1415" y="161.7764">nb_symboles():int</text><text fill="#000000" font-family="sans-serif" font-size="14" lengthAdjust="spacing" textLength="250" x="1415" y="178.0732">double_symbole(Scientifique):bool</text><text fill="#000000" font-family="sans-serif" font-size="14" lengthAdjust="spacing" textLength="178" x="1415" y="194.3701">prix_fixe(ressource):bool</text><text fill="#000000" font-family="sans-serif" font-size="14" lengthAdjust="spacing" textLength="244" x="1415" y="210.667">get_couleur(couleur1,couleur2):int</text><text fill="#000000" font-family="sans-serif" font-size="14" lengthAdjust="spacing" textLength="171" x="1415" y="226.9639">get_couleur(couleur):int</text><text fill="#000000" font-family="sans-serif" font-size="14" lengthAdjust="spacing" textLength="90" x="1415" y="243.2607">action():void</text><text fill="#000000" font-family="sans-serif" font-size="14" lengthAdjust="spacing" textLength="107" x="1415" y="259.5576">defosser():void</text><text fill="#000000" font-family="sans-serif" font-size="14" lengthAdjust="spacing" textLength="193" x="1415" y="275.8545">construire_batiment():void</text><text fill="#000000" font-family="sans-serif" font-size="14" lengthAdjust="spacing" textLength="192" x="1415" y="292.1514">construire_merveille():void</text></g><!--class Jeton--><g id="elem_Jeton"><rect codeLine="78" fill="#F1F1F1" height="80.5938" id="Jeton" rx="2.5" ry="2.5" style="stroke:#181818;stroke-width:0.5;" width="109" x="1811.5" y="112.5"/><ellipse cx="1844.05" cy="128.5" fill="#ADD1B2" rx="11" ry="11" style="stroke:#181818;stroke-width:1.0;"/><path d="M1846.3938,124.1719 C1845.4563,123.7344 1844.8625,123.5938 1843.9875,123.5938 C1841.3625,123.5938 1839.3625,125.6719 1839.3625,128.3906 L1839.3625,129.5156 C1839.3625,132.0938 1841.4719,133.9844 1844.3625,133.9844 C1845.5813,133.9844 1846.7375,133.6875 1847.4875,133.1406 C1848.0656,132.7344 1848.3938,132.2813 1848.3938,131.8906 C1848.3938,131.4375 1848.0031,131.0469 1847.5344,131.0469 C1847.3156,131.0469 1847.1125,131.125 1846.925,131.3125 C1846.4719,131.7969 1846.4719,131.7969 1846.2844,131.8906 C1845.8625,132.1563 1845.175,132.2813 1844.4094,132.2813 C1842.3625,132.2813 1841.0656,131.1875 1841.0656,129.4844 L1841.0656,128.3906 C1841.0656,126.6094 1842.3156,125.2969 1844.05,125.2969 C1844.6281,125.2969 1845.2375,125.4531 1845.7063,125.7031 C1846.1906,125.9844 1846.3625,126.2031 1846.4563,126.6094 C1846.5188,127.0156 1846.55,127.1406 1846.6906,127.2656 C1846.8313,127.4063 1847.0656,127.5156 1847.2844,127.5156 C1847.55,127.5156 1847.8156,127.375 1847.9875,127.1563 C1848.0969,127 1848.1281,126.8125 1848.1281,126.3906 L1848.1281,124.9688 C1848.1281,124.5313 1848.1125,124.4063 1848.0188,124.25 C1847.8625,123.9844 1847.5813,123.8438 1847.2844,123.8438 C1846.9875,123.8438 1846.7844,123.9375 1846.5656,124.25 L1846.3938,124.1719 Z " fill="#000000"/><text fill="#000000" font-family="sans-serif" font-size="14" lengthAdjust="spacing" textLength="38" x="1861.95" y="133.3467">Jeton</text><line style="stroke:#181818;stroke-width:0.5;" x1="1812.5" x2="1919.5" y1="144.5" y2="144.5"/><polygon fill="none" points="1822.5,153.1484,1826.5,157.1484,1822.5,161.1484,1818.5,157.1484" style="stroke:#B38D22;stroke-width:1.0;"/><text fill="#000000" font-family="sans-serif" font-size="14" lengthAdjust="spacing" textLength="79" x="1831.5" y="161.4951">nom:string</text><text fill="#000000" font-family="sans-serif" font-size="14" lengthAdjust="spacing" textLength="83" x="1831.5" y="177.792">en_jeu:bool</text><line style="stroke:#181818;stroke-width:0.5;" x1="1812.5" x2="1919.5" y1="185.0938" y2="185.0938"/></g><!--class Jeton_militaire--><g id="elem_Jeton_militaire"><rect codeLine="83" fill="#F1F1F1" height="64.2969" id="Jeton_militaire" rx="2.5" ry="2.5" style="stroke:#181818;stroke-width:0.5;" width="137" x="1844.5" y="449.5"/><ellipse cx="1859.5" cy="465.5" fill="#ADD1B2" rx="11" ry="11" style="stroke:#181818;stroke-width:1.0;"/><path d="M1861.8438,461.1719 C1860.9063,460.7344 1860.3125,460.5938 1859.4375,460.5938 C1856.8125,460.5938 1854.8125,462.6719 1854.8125,465.3906 L1854.8125,466.5156 C1854.8125,469.0938 1856.9219,470.9844 1859.8125,470.9844 C1861.0313,470.9844 1862.1875,470.6875 1862.9375,470.1406 C1863.5156,469.7344 1863.8438,469.2813 1863.8438,468.8906 C1863.8438,468.4375 1863.4531,468.0469 1862.9844,468.0469 C1862.7656,468.0469 1862.5625,468.125 1862.375,468.3125 C1861.9219,468.7969 1861.9219,468.7969 1861.7344,468.8906 C1861.3125,469.1563 1860.625,469.2813 1859.8594,469.2813 C1857.8125,469.2813 1856.5156,468.1875 1856.5156,466.4844 L1856.5156,465.3906 C1856.5156,463.6094 1857.7656,462.2969 1859.5,462.2969 C1860.0781,462.2969 1860.6875,462.4531 1861.1563,462.7031 C1861.6406,462.9844 1861.8125,463.2031 1861.9063,463.6094 C1861.9688,464.0156 1862,464.1406 1862.1406,464.2656 C1862.2813,464.4063 1862.5156,464.5156 1862.7344,464.5156 C1863,464.5156 1863.2656,464.375 1863.4375,464.1563 C1863.5469,464 1863.5781,463.8125 1863.5781,463.3906 L1863.5781,461.9688 C1863.5781,461.5313 1863.5625,461.4063 1863.4688,461.25 C1863.3125,460.9844 1863.0313,460.8438 1862.7344,460.8438 C1862.4375,460.8438 1862.2344,460.9375 1862.0156,461.25 L1861.8438,461.1719 Z " fill="#000000"/><text fill="#000000" font-family="sans-serif" font-size="14" lengthAdjust="spacing" textLength="105" x="1873.5" y="470.3467">Jeton_militaire</text><line style="stroke:#181818;stroke-width:0.5;" x1="1845.5" x2="1980.5" y1="481.5" y2="481.5"/><text fill="#000000" font-family="sans-serif" font-size="14" lengthAdjust="spacing" textLength="73" x="1850.5" y="498.4951">argent:int</text><line style="stroke:#181818;stroke-width:0.5;" x1="1845.5" x2="1980.5" y1="505.7969" y2="505.7969"/></g><!--class Jeton_progres--><g id="elem_Jeton_progres"><rect codeLine="86" fill="#F1F1F1" height="210.9688" id="Jeton_progres" rx="2.5" ry="2.5" style="stroke:#181818;stroke-width:0.5;" width="163" x="1646.5" y="376"/><ellipse cx="1675" cy="392" fill="#ADD1B2" rx="11" ry="11" style="stroke:#181818;stroke-width:1.0;"/><path d="M1677.3438,387.6719 C1676.4063,387.2344 1675.8125,387.0938 1674.9375,387.0938 C1672.3125,387.0938 1670.3125,389.1719 1670.3125,391.8906 L1670.3125,393.0156 C1670.3125,395.5938 1672.4219,397.4844 1675.3125,397.4844 C1676.5313,397.4844 1677.6875,397.1875 1678.4375,396.6406 C1679.0156,396.2344 1679.3438,395.7813 1679.3438,395.3906 C1679.3438,394.9375 1678.9531,394.5469 1678.4844,394.5469 C1678.2656,394.5469 1678.0625,394.625 1677.875,394.8125 C1677.4219,395.2969 1677.4219,395.2969 1677.2344,395.3906 C1676.8125,395.6563 1676.125,395.7813 1675.3594,395.7813 C1673.3125,395.7813 1672.0156,394.6875 1672.0156,392.9844 L1672.0156,391.8906 C1672.0156,390.1094 1673.2656,388.7969 1675,388.7969 C1675.5781,388.7969 1676.1875,388.9531 1676.6563,389.2031 C1677.1406,389.4844 1677.3125,389.7031 1677.4063,390.1094 C1677.4688,390.5156 1677.5,390.6406 1677.6406,390.7656 C1677.7813,390.9063 1678.0156,391.0156 1678.2344,391.0156 C1678.5,391.0156 1678.7656,390.875 1678.9375,390.6563 C1679.0469,390.5 1679.0781,390.3125 1679.0781,389.8906 L1679.0781,388.4688 C1679.0781,388.0313 1679.0625,387.9063 1678.9688,387.75 C1678.8125,387.4844 1678.5313,387.3438 1678.2344,387.3438 C1677.9375,387.3438 1677.7344,387.4375 1677.5156,387.75 L1677.3438,387.6719 Z " fill="#000000"/><text fill="#000000" font-family="sans-serif" font-size="14" lengthAdjust="spacing" textLength="101" x="1692" y="396.8467">Jeton_progres</text><line style="stroke:#181818;stroke-width:0.5;" x1="1647.5" x2="1808.5" y1="408" y2="408"/><line style="stroke:#181818;stroke-width:0.5;" x1="1647.5" x2="1808.5" y1="416" y2="416"/><text fill="#000000" font-family="sans-serif" font-size="14" lengthAdjust="spacing" textLength="134" x="1652.5" y="432.9951">architecture():void</text><text fill="#000000" font-family="sans-serif" font-size="14" lengthAdjust="spacing" textLength="122" x="1652.5" y="449.292">agriculture():void</text><text fill="#000000" font-family="sans-serif" font-size="14" lengthAdjust="spacing" textLength="116" x="1652.5" y="465.5889">economie():void</text><text fill="#000000" font-family="sans-serif" font-size="14" lengthAdjust="spacing" textLength="62" x="1652.5" y="481.8857">loi():void</text><text fill="#000000" font-family="sans-serif" font-size="14" lengthAdjust="spacing" textLength="130" x="1652.5" y="498.1826">maconnerie():void</text><text fill="#000000" font-family="sans-serif" font-size="14" lengthAdjust="spacing" textLength="151" x="1652.5" y="514.4795">mathematique():void</text><text fill="#000000" font-family="sans-serif" font-size="14" lengthAdjust="spacing" textLength="129" x="1652.5" y="530.7764">philosophie():void</text><text fill="#000000" font-family="sans-serif" font-size="14" lengthAdjust="spacing" textLength="111" x="1652.5" y="547.0732">strategie():void</text><text fill="#000000" font-family="sans-serif" font-size="14" lengthAdjust="spacing" textLength="114" x="1652.5" y="563.3701">theologie():void</text><text fill="#000000" font-family="sans-serif" font-size="14" lengthAdjust="spacing" textLength="120" x="1652.5" y="579.667">urbanisme():void</text></g><!--class Partie--><g id="elem_Partie"><rect codeLine="102" fill="#F1F1F1" height="243.5625" id="Partie" rx="2.5" ry="2.5" style="stroke:#181818;stroke-width:0.5;" width="247" x="1313.5" y="870"/><ellipse cx="1411.25" cy="886" fill="#ADD1B2" rx="11" ry="11" style="stroke:#181818;stroke-width:1.0;"/><path d="M1413.5938,881.6719 C1412.6563,881.2344 1412.0625,881.0938 1411.1875,881.0938 C1408.5625,881.0938 1406.5625,883.1719 1406.5625,885.8906 L1406.5625,887.0156 C1406.5625,889.5938 1408.6719,891.4844 1411.5625,891.4844 C1412.7813,891.4844 1413.9375,891.1875 1414.6875,890.6406 C1415.2656,890.2344 1415.5938,889.7813 1415.5938,889.3906 C1415.5938,888.9375 1415.2031,888.5469 1414.7344,888.5469 C1414.5156,888.5469 1414.3125,888.625 1414.125,888.8125 C1413.6719,889.2969 1413.6719,889.2969 1413.4844,889.3906 C1413.0625,889.6563 1412.375,889.7813 1411.6094,889.7813 C1409.5625,889.7813 1408.2656,888.6875 1408.2656,886.9844 L1408.2656,885.8906 C1408.2656,884.1094 1409.5156,882.7969 1411.25,882.7969 C1411.8281,882.7969 1412.4375,882.9531 1412.9063,883.2031 C1413.3906,883.4844 1413.5625,883.7031 1413.6563,884.1094 C1413.7188,884.5156 1413.75,884.6406 1413.8906,884.7656 C1414.0313,884.9063 1414.2656,885.0156 1414.4844,885.0156 C1414.75,885.0156 1415.0156,884.875 1415.1875,884.6563 C1415.2969,884.5 1415.3281,884.3125 1415.3281,883.8906 L1415.3281,882.4688 C1415.3281,882.0313 1415.3125,881.9063 1415.2188,881.75 C1415.0625,881.4844 1414.7813,881.3438 1414.4844,881.3438 C1414.1875,881.3438 1413.9844,881.4375 1413.7656,881.75 L1413.5938,881.6719 Z " fill="#000000"/><text fill="#000000" font-family="sans-serif" font-size="14" lengthAdjust="spacing" textLength="43" x="1431.75" y="890.8467">Partie</text><line style="stroke:#181818;stroke-width:0.5;" x1="1314.5" x2="1559.5" y1="902" y2="902"/><text fill="#000000" font-family="sans-serif" font-size="14" lengthAdjust="spacing" textLength="181" x="1319.5" y="918.9951">solde_militaire:signed int</text><text fill="#000000" font-family="sans-serif" font-size="14" lengthAdjust="spacing" textLength="81" x="1319.5" y="935.292">nb_tour:int</text><text fill="#000000" font-family="sans-serif" font-size="14" lengthAdjust="spacing" textLength="83" x="1319.5" y="951.5889">age:{1,2,3}</text><text fill="#000000" font-family="sans-serif" font-size="14" lengthAdjust="spacing" textLength="173" x="1319.5" y="967.8857">merveille_construite:int</text><text fill="#000000" font-family="sans-serif" font-size="14" lengthAdjust="spacing" textLength="74" x="1319.5" y="984.1826">tour:{1,2}</text><text fill="#000000" font-family="sans-serif" font-size="14" lengthAdjust="spacing" textLength="201" x="1319.5" y="1000.4795">disposition:Batiment tab[][]</text><line style="stroke:#181818;stroke-width:0.5;" x1="1314.5" x2="1559.5" y1="1007.7813" y2="1007.7813"/><text fill="#000000" font-family="sans-serif" font-size="14" lengthAdjust="spacing" textLength="158" x="1319.5" y="1024.7764">choix_batiment():void</text><text fill="#000000" font-family="sans-serif" font-size="14" lengthAdjust="spacing" textLength="191" x="1319.5" y="1041.0732">choix_jeton_progres():void</text><text fill="#000000" font-family="sans-serif" font-size="14" lengthAdjust="spacing" textLength="99" x="1319.5" y="1057.3701">fin_age():bool</text><text fill="#000000" font-family="sans-serif" font-size="14" lengthAdjust="spacing" textLength="202" x="1319.5" y="1073.667">accessibilite(Batiment):void</text><text fill="#000000" font-family="sans-serif" font-size="14" lengthAdjust="spacing" textLength="235" x="1319.5" y="1089.9639">victoire_scientifique(Joueur):void</text><text fill="#000000" font-family="sans-serif" font-size="14" lengthAdjust="spacing" textLength="167" x="1319.5" y="1106.2607">victoire_militaire():void</text></g><!--class Ressource--><g id="elem_Ressource"><rect codeLine="116" fill="#F1F1F1" height="129.4844" id="Ressource" rx="2.5" ry="2.5" style="stroke:#181818;stroke-width:0.5;" width="105" x="1955.5" y="88.5"/><ellipse cx="1970.5" cy="104.5" fill="#EB937F" rx="11" ry="11" style="stroke:#181818;stroke-width:1.0;"/><path d="M1969.2969,105.375 L1970.75,105.375 L1970.75,105.4844 C1970.75,105.8906 1970.7813,106.0469 1970.8594,106.2031 C1971.0156,106.4531 1971.2969,106.6094 1971.5938,106.6094 C1971.8438,106.6094 1972.1094,106.4688 1972.2656,106.25 C1972.3906,106.0938 1972.4219,105.9375 1972.4219,105.4844 L1972.4219,103.5625 C1972.4219,103.4063 1972.4219,103.3594 1972.4063,103.2031 C1972.3438,102.7344 1972.0313,102.4219 1971.5781,102.4219 C1971.3281,102.4219 1971.0625,102.5625 1970.8906,102.7813 C1970.7813,102.9531 1970.75,103.1094 1970.75,103.5625 L1970.75,103.6875 L1969.2969,103.6875 L1969.2969,101.2813 L1973.2813,101.2813 L1973.2813,102.1406 C1973.2813,102.5469 1973.3125,102.7188 1973.3906,102.875 C1973.5625,103.125 1973.8438,103.2813 1974.125,103.2813 C1974.3906,103.2813 1974.6563,103.1406 1974.8281,102.9219 C1974.9375,102.75 1974.9688,102.6094 1974.9688,102.1406 L1974.9688,99.5938 L1967.3438,99.5938 C1966.9063,99.5938 1966.7813,99.6094 1966.625,99.7031 C1966.375,99.8594 1966.2188,100.1563 1966.2188,100.4375 C1966.2188,100.7188 1966.3594,100.9688 1966.5781,101.1406 C1966.7344,101.25 1966.9219,101.2813 1967.3438,101.2813 L1967.5938,101.2813 L1967.5938,107.7969 L1967.3438,107.7969 C1966.9375,107.7969 1966.7813,107.8125 1966.625,107.9219 C1966.375,108.0938 1966.2188,108.3594 1966.2188,108.6563 C1966.2188,108.9219 1966.3594,109.1719 1966.5781,109.3281 C1966.7188,109.4531 1966.9531,109.5 1967.3438,109.5 L1975.3438,109.5 L1975.3438,106.9219 C1975.3438,106.4844 1975.3125,106.3438 1975.2344,106.1875 C1975.0625,105.9375 1974.7813,105.7813 1974.5,105.7813 C1974.2344,105.7813 1973.9688,105.8906 1973.7969,106.1406 C1973.6875,106.2969 1973.6563,106.4375 1973.6563,106.9219 L1973.6563,107.7969 L1969.2969,107.7969 L1969.2969,105.375 Z " fill="#000000"/><text fill="#000000" font-family="sans-serif" font-size="14" lengthAdjust="spacing" textLength="73" x="1984.5" y="109.3467">Ressource</text><line style="stroke:#181818;stroke-width:0.5;" x1="1956.5" x2="2059.5" y1="120.5" y2="120.5"/><text fill="#000000" font-family="sans-serif" font-size="14" lengthAdjust="spacing" textLength="30" x="1961.5" y="137.4951">bois</text><text fill="#000000" font-family="sans-serif" font-size="14" lengthAdjust="spacing" textLength="40" x="1961.5" y="153.792">argile</text><text fill="#000000" font-family="sans-serif" font-size="14" lengthAdjust="spacing" textLength="44" x="1961.5" y="170.0889">pierre</text><text fill="#000000" font-family="sans-serif" font-size="14" lengthAdjust="spacing" textLength="38" x="1961.5" y="186.3857">verre</text><text fill="#000000" font-family="sans-serif" font-size="14" lengthAdjust="spacing" textLength="57" x="1961.5" y="202.6826">papyrus</text><line style="stroke:#181818;stroke-width:0.5;" x1="1956.5" x2="2059.5" y1="209.9844" y2="209.9844"/></g><!--reverse link Carte to Batiment--><g id="link_Carte_Batiment"><path codeLine="21" d="M1252.8338,548.4163 C1189.5038,592.7473 1116.83,643.62 1058.69,684.32 " fill="none" id="Carte-backto-Batiment" style="stroke:#181818;stroke-width:1.0;"/><polygon fill="none" points="1267.58,538.094,1249.3931,543.5009,1256.2746,553.3317,1267.58,538.094" style="stroke:#181818;stroke-width:1.0;"/></g><!--reverse link Carte to Merveille--><g id="link_Carte_Merveille"><path codeLine="22" d="M1347.5991,556.0934 C1347.9091,593.5074 1348.16,624.932 1348.48,663.911 " fill="none" id="Carte-backto-Merveille" style="stroke:#181818;stroke-width:1.0;"/><polygon fill="none" points="1347.45,538.094,1341.5993,556.1431,1353.5989,556.0437,1347.45,538.094" style="stroke:#181818;stroke-width:1.0;"/></g><!--reverse link Batiment to Mati?re_Premi?re--><g id="link_Batiment_Mati&#232;re_Premi&#232;re"><path codeLine="52" d="M917.3565,736.091 C750.6565,750.565 313.162,794.593 185,870 C148.654,891.385 120.213,931.639 103.5402,959.824 " fill="none" id="Batiment-backto-Mati&#232;re_Premi&#232;re" style="stroke:#181818;stroke-width:1.0;"/><polygon fill="none" points="935.289,734.534,916.8375,730.1135,917.8755,742.0685,935.289,734.534" style="stroke:#181818;stroke-width:1.0;"/></g><!--reverse link Batiment to Mati?re_Manufacture--><g id="link_Batiment_Mati&#232;re_Manufacture"><path codeLine="53" d="M917.4629,731.796 C803.5709,737.155 573.992,760.712 403,870 C366.312,893.449 334.32,932.473 314.65,959.848 " fill="none" id="Batiment-backto-Mati&#232;re_Manufacture" style="stroke:#181818;stroke-width:1.0;"/><polygon fill="none" points="935.443,730.95,917.1809,725.8027,917.7449,737.7894,935.443,730.95" style="stroke:#181818;stroke-width:1.0;"/></g><!--reverse link Batiment to Civil--><g id="link_Batiment_Civil"><path codeLine="54" d="M917.3932,733.3428 C818.6152,740.5108 641.624,766.486 520,870 C492.68,893.252 477.241,932.316 469.274,959.754 " fill="none" id="Batiment-backto-Civil" style="stroke:#181818;stroke-width:1.0;"/><polygon fill="none" points="935.346,732.04,916.9589,727.3585,917.8275,739.327,935.346,732.04" style="stroke:#181818;stroke-width:1.0;"/></g><!--reverse link Batiment to Scientifique--><g id="link_Batiment_Scientifique"><path codeLine="55" d="M925.1411,788.5918 C864.4111,838.5318 784.003,904.653 727.204,951.361 " fill="none" id="Batiment-backto-Scientifique" style="stroke:#181818;stroke-width:1.0;"/><polygon fill="none" points="939.044,777.159,921.3301,783.9575,928.952,793.2261,939.044,777.159" style="stroke:#181818;stroke-width:1.0;"/></g><!--reverse link Batiment to Commerce--><g id="link_Batiment_Commerce"><path codeLine="56" d="M977.9616,794.6705 C973.8736,809.2605 974.448,808.061 971,823 C962.428,860.135 954.651,902.319 949.031,935.127 " fill="none" id="Batiment-backto-Commerce" style="stroke:#181818;stroke-width:1.0;"/><polygon fill="none" points="982.818,777.338,972.1841,793.0517,983.7391,796.2893,982.818,777.338" style="stroke:#181818;stroke-width:1.0;"/></g><!--reverse link Batiment to Guilde--><g id="link_Batiment_Guilde"><path codeLine="57" d="M1004.4545,794.9819 C1007.6245,815.0209 1010.12,820.4 1019,840 C1025.93,855.304 1033.02,855.799 1042,870 C1058.52,896.136 1074.37,927.208 1085.91,951.32 " fill="none" id="Batiment-backto-Guilde" style="stroke:#181818;stroke-width:1.0;"/><polygon fill="none" points="1001.642,777.203,998.5282,795.9194,1010.3808,794.0444,1001.642,777.203" style="stroke:#181818;stroke-width:1.0;"/></g><!--reverse link Batiment to Militaire--><g id="link_Batiment_Militaire"><path codeLine="58" d="M1021.866,793.5406 C1032.056,815.5376 1039.48,823.937 1060,840 C1098.55,870.182 1127.83,839.334 1166,870 C1194.72,893.075 1212.45,932.37 1221.99,959.902 " fill="none" id="Batiment-backto-Militaire" style="stroke:#181818;stroke-width:1.0;"/><polygon fill="none" points="1014.3,777.208,1016.4218,796.0627,1027.3102,791.0186,1014.3,777.208" style="stroke:#181818;stroke-width:1.0;"/></g><!--reverse link Jeton to Jeton_militaire--><g id="link_Jeton_Jeton_militaire"><path codeLine="99" d="M1874.2827,211.5256 C1883.7427,277.2946 1899.93,389.673 1908.51,449.325 " fill="none" id="Jeton-backto-Jeton_militaire" style="stroke:#181818;stroke-width:1.0;"/><polygon fill="none" points="1871.72,193.709,1868.3438,212.3799,1880.2216,210.6714,1871.72,193.709" style="stroke:#181818;stroke-width:1.0;"/></g><!--reverse link Jeton to Jeton_progres--><g id="link_Jeton_Jeton_progres"><path codeLine="100" d="M1842.212,210.2888 C1823.212,255.2398 1798.5,313.705 1772.27,375.755 " fill="none" id="Jeton-backto-Jeton_progres" style="stroke:#181818;stroke-width:1.0;"/><polygon fill="none" points="1849.22,193.709,1836.6854,207.9528,1847.7386,212.6247,1849.22,193.709" style="stroke:#181818;stroke-width:1.0;"/></g><!--link Batiment to Batiment--><g id="link_Batiment_Batiment"><path codeLine="124" d="M1058.72,709.386 C1078.16,709.677 1093.5,716.049 1093.5,728.5 C1093.5,740.951 1078.16,747.323 1058.72,747.614 " fill="none" id="Batiment-Batiment" style="stroke:#181818;stroke-width:1.0;"/><text fill="#000000" font-family="sans-serif" font-size="13" lengthAdjust="spacing" textLength="58" x="1099.5" y="733.0669">chainage</text><text fill="#000000" font-family="sans-serif" font-size="13" lengthAdjust="spacing" textLength="8" x="1066.3189" y="703.3897">1</text><text fill="#000000" font-family="sans-serif" font-size="13" lengthAdjust="spacing" textLength="8" x="1066.3189" y="762.7721">1</text></g><!--link Joueur to Carte--><g id="link_Joueur_Carte"><path codeLine="125" d="M1422.97,299.381 C1416.59,309.208 1410.54,319.128 1405,329 C1388.05,359.21 1374,395.364 1363.97,424.776 " fill="none" id="Joueur-Carte" style="stroke:#181818;stroke-width:1.0;"/><text fill="#000000" font-family="sans-serif" font-size="13" lengthAdjust="spacing" textLength="54" x="1406" y="342.0669">possede</text><text fill="#000000" font-family="sans-serif" font-size="13" lengthAdjust="spacing" textLength="8" x="1408.7294" y="319.3741">1</text><text fill="#000000" font-family="sans-serif" font-size="13" lengthAdjust="spacing" textLength="7" x="1358.6117" y="414.0123">*</text></g><!--link Batiment to Partie--><g id="link_Batiment_Partie"><path codeLine="126" d="M1026.64,777.236 C1043.3,799.945 1066.14,825.289 1093,840 C1172.99,883.814 1213.02,832.149 1296,870 C1301.87,872.677 1307.68,875.675 1313.41,878.927 " fill="none" id="Batiment-Partie" style="stroke:#181818;stroke-width:1.0;"/><text fill="#000000" font-family="sans-serif" font-size="13" lengthAdjust="spacing" textLength="66" x="1094" y="836.0669">en_jeu_A1</text><text fill="#000000" font-family="sans-serif" font-size="13" lengthAdjust="spacing" textLength="16" x="1013.5479" y="796.8759">20</text><text fill="#000000" font-family="sans-serif" font-size="13" lengthAdjust="spacing" textLength="7" x="1298.6655" y="868.6639">*</text></g><!--link Batiment to Partie--><g id="link_Batiment_Partie"><path codeLine="127" d="M1058.66,764.579 C1107.93,792.294 1173.19,828.204 1201,840 C1241.76,857.289 1257.3,848.48 1296,870 C1301.78,873.214 1307.54,876.689 1313.24,880.363 " fill="none" id="Batiment-Partie-1" style="stroke:#181818;stroke-width:1.0;"/><text fill="#000000" font-family="sans-serif" font-size="13" lengthAdjust="spacing" textLength="66" x="1202" y="836.0669">en_jeu_A2</text><text fill="#000000" font-family="sans-serif" font-size="13" lengthAdjust="spacing" textLength="16" x="1066.7144" y="781.6987">20</text><text fill="#000000" font-family="sans-serif" font-size="13" lengthAdjust="spacing" textLength="7" x="1298.4851" y="886.1014">*</text></g><!--link Batiment to Partie--><g id="link_Batiment_Partie"><path codeLine="128" d="M1058.75,741.643 C1117.21,755.095 1205.79,780.671 1273,823 C1293.87,836.141 1314.03,852.455 1332.66,869.706 " fill="none" id="Batiment-Partie-2" style="stroke:#181818;stroke-width:1.0;"/><text fill="#000000" font-family="sans-serif" font-size="13" lengthAdjust="spacing" textLength="66" x="1295" y="836.0669">en_jeu_A3</text><text fill="#000000" font-family="sans-serif" font-size="13" lengthAdjust="spacing" textLength="16" x="1066.3789" y="739.3403">20</text><text fill="#000000" font-family="sans-serif" font-size="13" lengthAdjust="spacing" textLength="7" x="1319.0885" y="858.8809">*</text></g><!--link Merveille to Partie--><g id="link_Merveille_Partie"><path codeLine="129" d="M1370.84,793.101 C1374.26,803.102 1377.73,813.328 1381,823 C1386.12,838.146 1391.46,854.071 1396.74,869.833 " fill="none" id="Merveille-Partie" style="stroke:#181818;stroke-width:1.0;"/><text fill="#000000" font-family="sans-serif" font-size="13" lengthAdjust="spacing" textLength="42" x="1387" y="836.0669">en_jeu</text><text fill="#000000" font-family="sans-serif" font-size="13" lengthAdjust="spacing" textLength="8" x="1364.9028" y="813.4842">8</text><text fill="#000000" font-family="sans-serif" font-size="13" lengthAdjust="spacing" textLength="7" x="1387.0734" y="859.0157">*</text></g><!--link Joueur to Jeton_progres--><g id="link_Joueur_Jeton_progres"><path codeLine="130" d="M1623.55,299.109 C1638.46,324.997 1653.72,351.5 1667.81,375.973 " fill="none" id="Joueur-Jeton_progres" style="stroke:#181818;stroke-width:1.0;"/><text fill="#000000" font-family="sans-serif" font-size="13" lengthAdjust="spacing" textLength="54" x="1646" y="342.0669">possede</text><text fill="#000000" font-family="sans-serif" font-size="13" lengthAdjust="spacing" textLength="28" x="1599.3535" y="319.5676">0...1</text><text fill="#000000" font-family="sans-serif" font-size="13" lengthAdjust="spacing" textLength="24" x="1638.7341" y="365.0985">0..5</text></g><!--link Joueur to Partie--><g id="link_Joueur_Partie"><path codeLine="131" d="M1522.12,299.316 C1502.24,460.822 1470.51,718.728 1451.92,869.79 " fill="none" id="Joueur-Partie" style="stroke:#181818;stroke-width:1.0;"/><text fill="#000000" font-family="sans-serif" font-size="13" lengthAdjust="spacing" textLength="64" x="1483" y="630.0669">vainqueur</text><text fill="#000000" font-family="sans-serif" font-size="13" lengthAdjust="spacing" textLength="8" x="1512.9918" y="319.3058">1</text><text fill="#000000" font-family="sans-serif" font-size="13" lengthAdjust="spacing" textLength="7" x="1445.6159" y="858.9701">*</text></g><!--link Joueur to Partie--><g id="link_Joueur_Partie"><path codeLine="132" d="M1558.25,299.049 C1566.86,394.746 1571.8,522.552 1554,634 C1541.12,714.67 1512.83,801.859 1487.3,869.878 " fill="none" id="Joueur-Partie-1" style="stroke:#181818;stroke-width:1.0;"/><text fill="#000000" font-family="sans-serif" font-size="13" lengthAdjust="spacing" textLength="50" x="1557" y="630.0669">perdant</text><text fill="#000000" font-family="sans-serif" font-size="13" lengthAdjust="spacing" textLength="8" x="1551.0293" y="319.5043">1</text><text fill="#000000" font-family="sans-serif" font-size="13" lengthAdjust="spacing" textLength="7" x="1483.1519" y="859.0634">*</text></g><!--link Jeton_progres to Partie--><g id="link_Jeton_progres_Partie"><path codeLine="133" d="M1712.61,587.201 C1697.8,662.399 1669.86,763.559 1619,840 C1603.19,863.756 1582.56,885.743 1560.87,905.17 " fill="none" id="Jeton_progres-Partie" style="stroke:#181818;stroke-width:1.0;"/><text fill="#000000" font-family="sans-serif" font-size="13" lengthAdjust="spacing" textLength="72" x="1695" y="733.0669">mis_en_jeu</text><text fill="#000000" font-family="sans-serif" font-size="13" lengthAdjust="spacing" textLength="8" x="1703.3072" y="606.8791">5</text><text fill="#000000" font-family="sans-serif" font-size="13" lengthAdjust="spacing" textLength="7" x="1568.6316" y="896.506">*</text></g><!--SRC=[ZLNRZjCm47ttLqJbfOlQ5Ri82LMy51uGI4Whu0sXo7McwQoSEFXIiGhv7_WEVeo97Jjkko1USXaVp-NC6Lj8RapnXciBFUlt2B8QYYUjQZR6Qcnh9fIpPOSWO8EjdNwrgZOQZ55E2s1z0_QWgg7J-BtSOylbybuvSFhARncOy45USuiDjBPdsnes_StgTlLyOD3UWzlib9AC2q4-SISX_CUD7q0V0QMa3EyeiXCMLRlvcEBVAGfZVAojhYb2kUqwfUtlNy6stuEma6smg7aDvJrOyXDIPCnpKBpwiLwdJ7DRIeB5h0Zq-wU6yav3uxzwzlcXo-CCvz0Fl7LxBgpx1_WD7b7sUL5nvPD0IWht-Ct12U3JGxDJn5glYVPL9rq3ApAiB4WmGdKmpDvLqm25wrdt69NTx9G7AdbE9R-WClfzwr1MerUl5D- -pDTwlPx9G8cMuyZ0JZaX4NJiGUHzOlo2uBy1CbhF89xCCrjEupbyOkVC78exZnxhY89uxpMVfiYExUqFgtVRWJt1AivJnefHvDL_fLao6RLnhDfTQKA3pJ9CLAKS3KcqBlE2hYBtna05fJXmciSwTYGCw7TOfe0JlWPRqcXBAc0vlMzMqyTj2Fe892nmBo9AxQYmOXNinzWw_WlLKkMEU2ft4t-FB3LnkkBQa5WTXxHd-P44RPdEZ5DSsSpY2lez6Q208U7NL7-V22wu5WUqu0KK4-2rHk5aRW9AM3MO_gN2-DbmMcj1puiDjmUWnzYKQEiEA9LHz4ecAebRg6S3xL9IPGQdTxn5q-JK-4A23C_glboQoeqytT6HXlDPxpKuRzyOh5keYf4rqfqbZOGUPoTswbKP6sY3YZrwH0siGaCIH7-wfB6nVFVbwvUlYNTnKAJ72rLuwtsUUroYkwMaJ9PNf_V5c3miOvW9UqHXrIWjaqt7ylrqBvr2KlapnT2wfaYpE1vLQ4P98Lq0TCPfOlhedntl7hGp9yVNucPH4F_ZAzasHPn55f98gAUBSFyIP1hRpDFjimGAdIDKq7-vlVbFtEr_ufwpTCaLYvT_mwNqdrrVNqybqEUBnQdUicekwqqkZqJ9jt7rNw0ETCL9NwV-5oykaGsQCcJv1m00]--></g></svg>